0
SECTION
2
HEADER
9
$INSUNITS
70
4
9
$ACADVER
1
AC1014
9
$HANDSEED
5
FFFF
0
ENDSEC
0
SECTION
2
TABLES
0
TABLE
2
VPORT
5
8
100
AcDbSymbolTable
0
ENDTAB
0
TABLE
2
LTYPE
5
5
100
AcDbSymbolTable
0
LTYPE
5
14
100
AcDbSymbolTableRecord
100
AcDbLinetypeTableRecord
2
BYBLOCK
70
0
0
LTYPE
5
15
100
AcDbSymbolTableRecord
100
AcDbLinetypeTableRecord
2
BYLAYER
70
0
0
ENDTAB
0
TABLE
2
LAYER
5
2
100
AcDbSymbolTable
70
2
0
LAYER
5
50
100
AcDbSymbolTableRecord
100
AcDbLayerTableRecord
2
0
70
0
6
CONTINUOUS
0
ENDTAB
0
TABLE
2
STYLE
5
3
100
AcDbSymbolTable
70
1
0
STYLE
5
11
100
AcDbSymbolTableRecord
100
AcDbTextStyleTableRecord
2
STANDARD
70
0
0
ENDTAB
0
TABLE
2
VIEW
5
6
100
AcDbSymbolTable
70
0
0
ENDTAB
0
TABLE
2
UCS
5
7
100
AcDbSymbolTable
70
0
0
ENDTAB
0
TABLE
2
APPID
5
9
100
AcDbSymbolTable
70
2
0
APPID
5
12
100
AcDbSymbolTableRecord
100
AcDbRegAppTableRecord
2
ACAD
70
0
0
ENDTAB
0
TABLE
2
DIMSTYLE
5
A
100
AcDbSymbolTable
70
1
0
ENDTAB
0
TABLE
2
BLOCK_RECORD
5
1
100
AcDbSymbolTable
70
1
0
BLOCK_RECORD
5
1F
100
AcDbSymbolTableRecord
100
AcDbBlockTableRecord
2
*MODEL_SPACE
0
BLOCK_RECORD
5
1B
100
AcDbSymbolTableRecord
100
AcDbBlockTableRecord
2
*PAPER_SPACE
0
ENDTAB
0
ENDSEC
0
SECTION
2
BLOCKS
0
BLOCK
5
20
100
AcDbEntity
100
AcDbBlockBegin
2
*MODEL_SPACE
0
ENDBLK
5
21
100
AcDbEntity
100
AcDbBlockEnd
0
BLOCK
5
1C
100
AcDbEntity
100
AcDbBlockBegin
2
*PAPER_SPACE
0
ENDBLK
5
1D
100
AcDbEntity
100
AcDbBlockEnd
0
ENDSEC
0
SECTION
2
ENTITIES
0
LINE
5
100
100
AcDbEntity
8
0
100
AcDbLine
10
-51.901392923846537
20
28.71907467297925
30
0
11
-52.136850923846509
21
29.069086672979214
31
0
0
LINE
5
101
100
AcDbEntity
8
0
100
AcDbLine
10
-52.136850923846509
20
29.069086672979214
30
0
11
-52.223718923846469
21
29.390142672979227
31
0
0
LINE
5
102
100
AcDbEntity
8
0
100
AcDbLine
10
-52.223718923846469
20
29.390142672979227
30
0
11
-52.223718923846469
21
29.604010672979246
31
0
0
LINE
5
103
100
AcDbEntity
8
0
100
AcDbLine
10
-52.223718923846469
20
29.604010672979246
30
0
11
-52.136850923846509
21
29.924812672979204
31
0
0
LINE
5
104
100
AcDbEntity
8
0
100
AcDbLine
10
-52.136850923846509
20
29.924812672979204
30
0
11
-51.901392923846537
21
30.274824672979239
31
0
0
LINE
5
105
100
AcDbEntity
8
0
100
AcDbLine
10
-51.901392923846537
20
30.274824672979239
30
0
11
-51.551380923846502
21
30.510536672979232
31
0
0
LINE
5
106
100
AcDbEntity
8
0
100
AcDbLine
10
-51.551380923846502
20
30.510536672979232
30
0
11
-51.230324923846524
21
30.595880672979217
31
0
0
LINE
5
107
100
AcDbEntity
8
0
100
AcDbLine
10
-51.230324923846524
20
30.595880672979217
30
0
11
-51.01645692384654
21
30.595880672979217
31
0
0
LINE
5
108
100
AcDbEntity
8
0
100
AcDbLine
10
-51.01645692384654
20
30.595880672979217
30
0
11
-50.695400923846456
21
30.510536672979232
31
0
0
LINE
5
109
100
AcDbEntity
8
0
100
AcDbLine
10
-50.695400923846456
20
30.510536672979232
30
0
11
-50.345642923846476
21
30.274824672979239
31
0
0
LINE
5
110
100
AcDbEntity
8
0
100
AcDbLine
10
-50.345642923846476
20
30.274824672979239
30
0
11
-50.109930923846484
21
29.924812672979204
31
0
0
LINE
5
111
100
AcDbEntity
8
0
100
AcDbLine
10
-50.109930923846484
20
29.924812672979204
30
0
11
-50.024586923846535
21
29.604010672979246
31
0
0
LINE
5
112
100
AcDbEntity
8
0
100
AcDbLine
10
-50.024586923846535
20
29.604010672979246
30
0
11
-50.024586923846535
21
29.390142672979227
31
0
0
LINE
5
113
100
AcDbEntity
8
0
100
AcDbLine
10
-50.024586923846535
20
29.390142672979227
30
0
11
-50.109930923846484
21
29.06908667297925
31
0
0
LINE
5
114
100
AcDbEntity
8
0
100
AcDbLine
10
-50.109930923846484
20
29.06908667297925
30
0
11
-50.345642923846547
21
28.71907467297925
31
0
0
LINE
5
115
100
AcDbEntity
8
0
100
AcDbLine
10
-50.345642923846547
20
28.71907467297925
30
0
11
-50.695400923846456
21
28.483616672979206
31
0
0
LINE
5
116
100
AcDbEntity
8
0
100
AcDbLine
10
-50.695400923846456
20
28.483616672979206
30
0
11
-51.01645692384654
21
28.396748672979246
31
0
0
LINE
5
117
100
AcDbEntity
8
0
100
AcDbLine
10
-51.01645692384654
20
28.396748672979246
30
0
11
-51.230324923846524
21
28.396748672979246
31
0
0
LINE
5
118
100
AcDbEntity
8
0
100
AcDbLine
10
-51.230324923846524
20
28.396748672979246
30
0
11
-51.551380923846502
21
28.483616672979242
31
0
0
LINE
5
119
100
AcDbEntity
8
0
100
AcDbLine
10
-51.551380923846502
20
28.483616672979242
30
0
11
-51.901392923846537
21
28.71907467297925
31
0
0
LINE
5
120
100
AcDbEntity
8
0
100
AcDbLine
10
24.648619076153473
20
34.082538672979211
30
0
11
24.969675076153486
21
34.167882672979189
31
0
0
LINE
5
121
100
AcDbEntity
8
0
100
AcDbLine
10
24.969675076153486
20
34.167882672979189
30
0
11
25.183543076153505
21
34.167882672979189
31
0
0
LINE
5
122
100
AcDbEntity
8
0
100
AcDbLine
10
25.183543076153505
20
34.167882672979189
30
0
11
25.504345076153463
21
34.082538672979211
31
0
0
LINE
5
123
100
AcDbEntity
8
0
100
AcDbLine
10
25.504345076153463
20
34.082538672979211
30
0
11
25.854357076153427
21
33.846826672979219
31
0
0
LINE
5
124
100
AcDbEntity
8
0
100
AcDbLine
10
25.854357076153427
20
33.846826672979219
30
0
11
26.09006907615349
21
33.496814672979212
31
0
0
LINE
5
125
100
AcDbEntity
8
0
100
AcDbLine
10
26.09006907615349
20
33.496814672979212
30
0
11
26.17541307615344
21
33.1757586729792
31
0
0
LINE
5
126
100
AcDbEntity
8
0
100
AcDbLine
10
26.17541307615344
20
33.1757586729792
30
0
11
26.17541307615344
21
32.961890672979223
31
0
0
LINE
5
127
100
AcDbEntity
8
0
100
AcDbLine
10
26.17541307615344
20
32.961890672979223
30
0
11
26.09006907615349
21
32.641088672979194
31
0
0
LINE
5
128
100
AcDbEntity
8
0
100
AcDbLine
10
26.09006907615349
20
32.641088672979194
30
0
11
25.854357076153427
21
32.29107667297923
31
0
0
LINE
5
129
100
AcDbEntity
8
0
100
AcDbLine
10
25.854357076153427
20
32.29107667297923
30
0
11
25.504345076153463
21
32.055364672979238
31
0
0
LINE
5
130
100
AcDbEntity
8
0
100
AcDbLine
10
25.504345076153463
20
32.055364672979238
30
0
11
25.183543076153505
21
31.968496672979239
31
0
0
LINE
5
131
100
AcDbEntity
8
0
100
AcDbLine
10
25.183543076153505
20
31.968496672979239
30
0
11
24.969675076153486
21
31.968496672979274
31
0
0
LINE
5
132
100
AcDbEntity
8
0
100
AcDbLine
10
24.969675076153486
20
31.968496672979274
30
0
11
24.648619076153473
21
32.055364672979195
31
0
0
LINE
5
133
100
AcDbEntity
8
0
100
AcDbLine
10
24.648619076153473
20
32.055364672979195
30
0
11
24.298607076153438
21
32.291076672979187
31
0
0
LINE
5
134
100
AcDbEntity
8
0
100
AcDbLine
10
24.298607076153438
20
32.291076672979187
30
0
11
24.062895076153445
21
32.641088672979194
31
0
0
LINE
5
135
100
AcDbEntity
8
0
100
AcDbLine
10
24.062895076153445
20
32.641088672979194
30
0
11
23.976281076153434
21
32.961890672979223
31
0
0
LINE
5
136
100
AcDbEntity
8
0
100
AcDbLine
10
23.976281076153434
20
32.961890672979223
30
0
11
23.976281076153434
21
33.1757586729792
31
0
0
LINE
5
137
100
AcDbEntity
8
0
100
AcDbLine
10
23.976281076153434
20
33.1757586729792
30
0
11
24.062895076153445
21
33.496814672979212
31
0
0
LINE
5
138
100
AcDbEntity
8
0
100
AcDbLine
10
24.062895076153445
20
33.496814672979212
30
0
11
24.298607076153438
21
33.846826672979248
31
0
0
LINE
5
139
100
AcDbEntity
8
0
100
AcDbLine
10
24.298607076153438
20
33.846826672979248
30
0
11
24.648619076153473
21
34.082538672979211
31
0
0
LINE
5
140
100
AcDbEntity
8
0
100
AcDbLine
10
41.63842507615346
20
-30.720989327020742
30
0
11
41.852293076153408
21
-30.720989327020742
31
0
0
LINE
5
141
100
AcDbEntity
8
0
100
AcDbLine
10
41.852293076153408
20
-30.720989327020742
30
0
11
42.173095076153437
21
-30.806587327020747
31
0
0
LINE
5
142
100
AcDbEntity
8
0
100
AcDbLine
10
42.173095076153437
20
-30.806587327020747
30
0
11
42.523107076153472
21
-31.042045327020752
31
0
0
LINE
5
143
100
AcDbEntity
8
0
100
AcDbLine
10
42.523107076153472
20
-31.042045327020752
30
0
11
42.758819076153465
21
-31.392311327020753
31
0
0
LINE
5
144
100
AcDbEntity
8
0
100
AcDbLine
10
42.758819076153465
20
-31.392311327020753
30
0
11
42.844163076153414
21
-31.713367327020766
31
0
0
LINE
5
145
100
AcDbEntity
8
0
100
AcDbLine
10
42.844163076153414
20
-31.713367327020766
30
0
11
42.844163076153414
21
-31.926981327020751
31
0
0
LINE
5
146
100
AcDbEntity
8
0
100
AcDbLine
10
42.844163076153414
20
-31.926981327020751
30
0
11
42.758819076153465
21
-32.248037327020761
31
0
0
LINE
5
147
100
AcDbEntity
8
0
100
AcDbLine
10
42.758819076153465
20
-32.248037327020761
30
0
11
42.523107076153472
21
-32.598303327020744
31
0
0
LINE
5
148
100
AcDbEntity
8
0
100
AcDbLine
10
42.523107076153472
20
-32.598303327020744
30
0
11
42.173095076153437
21
-32.83376132702076
31
0
0
LINE
5
149
100
AcDbEntity
8
0
100
AcDbLine
10
42.173095076153437
20
-32.83376132702076
30
0
11
41.852293076153408
21
-32.920629327020748
31
0
0
LINE
5
150
100
AcDbEntity
8
0
100
AcDbLine
10
41.852293076153408
20
-32.920629327020748
30
0
11
41.63842507615346
21
-32.920629327020748
31
0
0
LINE
5
151
100
AcDbEntity
8
0
100
AcDbLine
10
41.63842507615346
20
-32.920629327020748
30
0
11
41.317369076153447
21
-32.833761327020753
31
0
0
LINE
5
152
100
AcDbEntity
8
0
100
AcDbLine
10
41.317369076153447
20
-32.833761327020753
30
0
11
40.967357076153483
21
-32.598303327020744
31
0
0
LINE
5
153
100
AcDbEntity
8
0
100
AcDbLine
10
40.967357076153483
20
-32.598303327020744
30
0
11
40.73164507615342
21
-32.248037327020761
31
0
0
LINE
5
154
100
AcDbEntity
8
0
100
AcDbLine
10
40.73164507615342
20
-32.248037327020761
30
0
11
40.645031076153479
21
-31.926981327020751
31
0
0
LINE
5
155
100
AcDbEntity
8
0
100
AcDbLine
10
40.645031076153479
20
-31.926981327020751
30
0
11
40.645031076153408
21
-31.713367327020769
31
0
0
LINE
5
156
100
AcDbEntity
8
0
100
AcDbLine
10
40.645031076153408
20
-31.713367327020769
30
0
11
40.73164507615342
21
-31.392311327020753
31
0
0
LINE
5
157
100
AcDbEntity
8
0
100
AcDbLine
10
40.73164507615342
20
-31.392311327020753
30
0
11
40.967357076153483
21
-31.042045327020752
31
0
0
LINE
5
158
100
AcDbEntity
8
0
100
AcDbLine
10
40.967357076153483
20
-31.042045327020752
30
0
11
41.317369076153447
21
-30.806587327020743
31
0
0
LINE
5
159
100
AcDbEntity
8
0
100
AcDbLine
10
41.317369076153447
20
-30.806587327020743
30
0
11
41.63842507615346
21
-30.720989327020742
31
0
0
LINE
5
160
100
AcDbEntity
8
0
100
AcDbLine
10
24.969675076153486
20
-6.1315033270207753
30
0
11
24.648619076153402
21
-6.0446353270207709
31
0
0
LINE
5
161
100
AcDbEntity
8
0
100
AcDbLine
10
24.648619076153402
20
-6.0446353270207709
30
0
11
24.298607076153438
21
-5.8089233270207608
31
0
0
LINE
5
162
100
AcDbEntity
8
0
100
AcDbLine
10
24.298607076153438
20
-5.8089233270207608
30
0
11
24.062895076153445
21
-5.4589113270207879
31
0
0
LINE
5
163
100
AcDbEntity
8
0
100
AcDbLine
10
24.062895076153445
20
-5.4589113270207879
30
0
11
23.976281076153434
21
-5.1381093270207767
31
0
0
LINE
5
164
100
AcDbEntity
8
0
100
AcDbLine
10
23.976281076153434
20
-5.1381093270207767
30
0
11
23.976281076153434
21
-4.924241327020793
31
0
0
LINE
5
165
100
AcDbEntity
8
0
100
AcDbLine
10
23.976281076153434
20
-4.924241327020793
30
0
11
24.062895076153428
21
-4.6031853270207801
31
0
0
LINE
5
166
100
AcDbEntity
8
0
100
AcDbLine
10
24.062895076153428
20
-4.6031853270207801
30
0
11
24.298607076153438
21
-4.2531733270207717
31
0
0
LINE
5
167
100
AcDbEntity
8
0
100
AcDbLine
10
24.298607076153438
20
-4.2531733270207717
30
0
11
24.648619076153402
21
-4.0174613270207793
31
0
0
LINE
5
168
100
AcDbEntity
8
0
100
AcDbLine
10
24.648619076153402
20
-4.0174613270207793
30
0
11
24.969675076153486
21
-3.9321173270208032
31
0
0
LINE
5
169
100
AcDbEntity
8
0
100
AcDbLine
10
24.969675076153486
20
-3.9321173270208032
30
0
11
25.183543076153434
21
-3.9321173270207943
31
0
0
LINE
5
170
100
AcDbEntity
8
0
100
AcDbLine
10
25.183543076153434
20
-3.9321173270207943
30
0
11
25.504345076153463
21
-4.0174613270207971
31
0
0
LINE
5
171
100
AcDbEntity
8
0
100
AcDbLine
10
25.504345076153463
20
-4.0174613270207971
30
0
11
25.854357076153427
21
-4.2531733270207805
31
0
0
LINE
5
172
100
AcDbEntity
8
0
100
AcDbLine
10
25.854357076153427
20
-4.2531733270207805
30
0
11
26.090069076153419
21
-4.6031853270207712
31
0
0
LINE
5
173
100
AcDbEntity
8
0
100
AcDbLine
10
26.090069076153419
20
-4.6031853270207712
30
0
11
26.17541307615344
21
-4.9242413270207752
31
0
0
LINE
5
174
100
AcDbEntity
8
0
100
AcDbLine
10
26.17541307615344
20
-4.9242413270207752
30
0
11
26.17541307615344
21
-5.1381093270207767
31
0
0
LINE
5
175
100
AcDbEntity
8
0
100
AcDbLine
10
26.17541307615344
20
-5.1381093270207767
30
0
11
26.090069076153419
21
-5.4589113270207879
31
0
0
LINE
5
176
100
AcDbEntity
8
0
100
AcDbLine
10
26.090069076153419
20
-5.4589113270207879
30
0
11
25.854357076153427
21
-5.8089233270207608
31
0
0
LINE
5
177
100
AcDbEntity
8
0
100
AcDbLine
10
25.854357076153427
20
-5.8089233270207608
30
0
11
25.504345076153463
21
-6.0446353270207709
31
0
0
LINE
5
178
100
AcDbEntity
8
0
100
AcDbLine
10
25.504345076153463
20
-6.0446353270207709
30
0
11
25.183543076153434
21
-6.1315033270207664
31
0
0
LINE
5
179
100
AcDbEntity
8
0
100
AcDbLine
10
25.183543076153434
20
-6.1315033270207664
30
0
11
24.969675076153486
21
-6.1315033270207753
31
0
0
LINE
5
180
100
AcDbEntity
8
0
100
AcDbLine
10
-50.024586923846535
20
-8.7098573270207424
30
0
11
-50.109930923846484
21
-9.0309133270207376
31
0
0
LINE
5
181
100
AcDbEntity
8
0
100
AcDbLine
10
-50.109930923846484
20
-9.0309133270207376
30
0
11
-50.345642923846547
21
-9.3809253270207194
31
0
0
LINE
5
182
100
AcDbEntity
8
0
100
AcDbLine
10
-50.345642923846547
20
-9.3809253270207194
30
0
11
-50.695400923846456
21
-9.6163833270207189
31
0
0
LINE
5
183
100
AcDbEntity
8
0
100
AcDbLine
10
-50.695400923846456
20
-9.6163833270207189
30
0
11
-51.01645692384654
21
-9.703251327020741
31
0
0
LINE
5
184
100
AcDbEntity
8
0
100
AcDbLine
10
-51.01645692384654
20
-9.703251327020741
30
0
11
-51.230324923846489
21
-9.7032513270207321
31
0
0
LINE
5
185
100
AcDbEntity
8
0
100
AcDbLine
10
-51.230324923846489
20
-9.7032513270207321
30
0
11
-51.551380923846502
21
-9.6163833270207277
31
0
0
LINE
5
186
100
AcDbEntity
8
0
100
AcDbLine
10
-51.551380923846502
20
-9.6163833270207277
30
0
11
-51.901392923846537
21
-9.3809253270207371
31
0
0
LINE
5
187
100
AcDbEntity
8
0
100
AcDbLine
10
-51.901392923846537
20
-9.3809253270207371
30
0
11
-52.136850923846509
21
-9.0309133270207287
31
0
0
LINE
5
188
100
AcDbEntity
8
0
100
AcDbLine
10
-52.136850923846509
20
-9.0309133270207287
30
0
11
-52.223718923846469
21
-8.7098573270207424
31
0
0
LINE
5
189
100
AcDbEntity
8
0
100
AcDbLine
10
-52.223718923846469
20
-8.7098573270207424
30
0
11
-52.223718923846469
21
-8.4959893270207409
31
0
0
LINE
5
190
100
AcDbEntity
8
0
100
AcDbLine
10
-52.223718923846469
20
-8.4959893270207409
30
0
11
-52.136850923846509
21
-8.1751873270207476
31
0
0
LINE
5
191
100
AcDbEntity
8
0
100
AcDbLine
10
-52.136850923846509
20
-8.1751873270207476
30
0
11
-51.901392923846537
21
-7.825175327020748
31
0
0
LINE
5
192
100
AcDbEntity
8
0
100
AcDbLine
10
-51.901392923846537
20
-7.825175327020748
30
0
11
-51.551380923846502
21
-7.5894633270207468
31
0
0
LINE
5
193
100
AcDbEntity
8
0
100
AcDbLine
10
-51.551380923846502
20
-7.5894633270207468
30
0
11
-51.230324923846489
21
-7.5041193270207351
31
0
0
LINE
5
194
100
AcDbEntity
8
0
100
AcDbLine
10
-51.230324923846489
20
-7.5041193270207351
30
0
11
-51.01645692384654
21
-7.504119327020744
31
0
0
LINE
5
195
100
AcDbEntity
8
0
100
AcDbLine
10
-51.01645692384654
20
-7.504119327020744
30
0
11
-50.695400923846456
21
-7.5894633270207379
31
0
0
LINE
5
196
100
AcDbEntity
8
0
100
AcDbLine
10
-50.695400923846456
20
-7.5894633270207379
30
0
11
-50.345642923846547
21
-7.8251753270207569
31
0
0
LINE
5
197
100
AcDbEntity
8
0
100
AcDbLine
10
-50.345642923846547
20
-7.8251753270207569
30
0
11
-50.109930923846484
21
-8.1751873270207565
31
0
0
LINE
5
198
100
AcDbEntity
8
0
100
AcDbLine
10
-50.109930923846484
20
-8.1751873270207565
30
0
11
-50.02458692384657
21
-8.4959893270207232
31
0
0
LINE
5
199
100
AcDbEntity
8
0
100
AcDbLine
10
-50.02458692384657
20
-8.4959893270207232
30
0
11
-50.024586923846535
21
-8.7098573270207424
31
0
0
SPLINE
5
200
100
AcDbEntity
8
0
100
AcDbSpline
70
1064
71
3
72
10
73
6
74
0
42
0.000000001
43
0.0000000001
44
0.0000000001
40
0
40
0
40
0
40
0
40
0.12610418254201422
40
0.12610418254201422
40
0.26979878216101638
40
0.26979878216101638
40
0.26979878216101638
40
0.26979878216101638
10
54.252150102532596
20
-13.074942433598116
30
0
10
54.612621787352893
20
-13.29116453274727
30
0
10
54.977908904397879
20
-13.509744697655792
30
0
10
55.749350615759532
20
-13.970602948874769
30
0
10
56.165671763192044
20
-14.218847168182762
30
0
10
56.576553045924101
20
-14.463537657116534
30
0
0
LINE
5
201
100
AcDbEntity
8
0
100
AcDbLine
10
54.252150102532596
20
-13.074942433598116
30
0
11
46.093059045452605
21
-26.77558843923256
31
0
0
LINE
5
202
100
AcDbEntity
8
0
100
AcDbLine
10
46.093059045452605
20
-26.77558843923256
30
0
11
36.422842252881068
21
-21.016722812031681
31
0
0
LINE
5
203
100
AcDbEntity
8
0
100
AcDbLine
10
36.422842252881068
20
-21.016722812031681
30
0
11
46.628958357224434
21
-3.8787368888853901
31
0
0
SPLINE
5
204
100
AcDbEntity
8
0
100
AcDbSpline
70
1064
71
3
72
10
73
6
74
0
42
0.000000001
43
0.0000000001
44
0.0000000001
40
0
40
0
40
0
40
0
40
0.40420253047073823
40
0.40420253047073823
40
0.65262998578211551
40
0.65262998578211551
40
0.65262998578211551
40
0.65262998578211551
10
46.581366172685264
20
3.3081526817259999
30
0
10
46.58129130866142
20
1.960810915570077
30
0
10
46.583243654645585
20
0.31769359788426321
30
0
10
46.598211870500812
20
-1.9426547232148828
30
0
10
46.608366487312374
20
-2.9857567988317335
30
0
10
46.628958357224434
20
-3.8787368888853901
30
0
0
LINE
5
205
100
AcDbEntity
8
0
100
AcDbLine
10
46.581366172685264
20
3.3081526817259999
30
0
11
46.584023499991773
21
51.13256663099942
31
0
0
SPLINE
5
206
100
AcDbEntity
8
0
100
AcDbSpline
70
1064
71
3
72
14
73
10
74
0
42
0.000000001
43
0.0000000001
44
0.0000000001
40
0
40
0
40
0
40
0
40
0.078128894677386401
40
0.078128894677386401
40
0.15625778935477155
40
0.15625778935477155
40
0.19847890714256183
40
0.19847890714256183
40
0.24070002493035231
40
0.24070002493035231
40
0.24070002493035231
40
0.24070002493035231
10
46.584023499991773
20
51.132566630999406
30
0
10
46.584037970567763
20
51.392996279522038
30
0
10
46.53318460134642
20
51.650938905084885
30
0
10
46.335466950641084
20
52.132812476424476
30
0
10
46.190492957662244
20
52.352136448217749
30
0
10
45.908708495780189
20
52.637674965450941
30
0
10
45.799555100184293
20
52.727133734509465
30
0
10
45.564283090085183
20
52.881648331545733
30
0
10
45.438820246985792
20
52.946273482477849
30
0
10
45.307617142280385
20
52.997191702929868
30
0
0
SPLINE
5
207
100
AcDbEntity
8
0
100
AcDbSpline
70
1064
71
3
72
10
73
6
74
0
42
0.000000001
43
0.0000000001
44
0.0000000001
40
0
40
0
40
0
40
0
40
1.4601854769141596
40
1.4601854769141596
40
3.0184767324297814
40
3.0184767324297814
40
3.0184767324297814
40
3.0184767324297814
10
16.370174655664584
20
60.700979737564481
30
0
10
21.195632854056292
20
60.064257115305097
30
0
10
25.8815868534532
20
59.114602112518796
30
0
10
35.57804376984695
20
56.524382955240696
30
0
10
40.49034960944315
20
54.866710650397707
30
0
10
45.307617142280407
20
52.997191702929896
30
0
0
LINE
5
208
100
AcDbEntity
8
0
100
AcDbLine
10
16.370174655664584
20
60.700979737564481
30
0
11
16.370174655561094
21
50.238416428329188
31
0
0
LINE
5
209
100
AcDbEntity
8
0
100
AcDbLine
10
16.370174655561094
20
50.238416428329188
30
0
11
7.8701746555705299
21
50.238416428329188
31
0
0
LINE
5
210
100
AcDbEntity
8
0
100
AcDbLine
10
7.8701746555705299
20
50.238416428329202
30
0
11
7.8701746555705308
21
61.492088478167034
31
0
0
SPLINE
5
211
100
AcDbEntity
8
0
100
AcDbSpline
70
1064
71
3
72
10
73
6
74
0
42
0.000000001
43
0.0000000001
44
0.0000000001
40
0
40
0
40
0
40
0
40
0.074688529631189576
40
0.074688529631189576
40
0.14988705523503726
40
0.14988705523503726
40
0.14988705523503726
40
0.14988705523503726
10
6.3611315370294008
20
61.566718315309728
30
0
10
6.6098550390405819
20
61.555828861835892
30
0
10
6.8651898653620336
20
61.543986732308781
30
0
10
7.3656192117336161
20
61.519346613205016
30
0
10
7.6164264911166768
20
61.506260013087029
30
0
10
7.8701746555705299
20
61.492088478167034
30
0
0
LINE
5
212
100
AcDbEntity
8
0
100
AcDbLine
10
6.3611315370294008
20
61.566718315309728
30
0
11
6.3611315370100012
21
26.645401541166844
31
0
0
LINE
5
213
100
AcDbEntity
8
0
100
AcDbLine
10
6.361131537010003
20
26.645401541166844
30
0
11
-13.610944734620922
21
26.645401541166844
31
0
0
LINE
5
214
100
AcDbEntity
8
0
100
AcDbLine
10
-13.610944734620922
20
26.645401541166844
30
0
11
-13.610944734570365
21
61.091492368760868
31
0
0
SPLINE
5
215
100
AcDbEntity
8
0
100
AcDbSpline
70
1064
71
3
72
10
73
6
74
0
42
0.000000001
43
0.0000000001
44
0.0000000001
40
0.14665863604273383
40
0.14665863604273383
40
0.14665863604273383
40
0.14665863604273383
40
3.0762984936946576
40
3.0762984936946576
40
6.0366192838878838
40
6.0366192838878838
40
6.0366192838878838
40
6.0366192838878838
10
-71.23090332678305
20
49.347470232555807
30
0
10
-61.902299687383362
20
52.286976263754624
30
0
10
-52.30420564990613
20
54.858442633431906
30
0
10
-32.961479264555713
20
58.879836188692792
30
0
10
-23.2473024026093
20
60.315974515741274
30
0
10
-13.610944734570367
20
61.091492368760868
30
0
0
SPLINE
5
216
100
AcDbEntity
8
0
100
AcDbSpline
70
1064
71
3
72
14
73
10
74
0
42
0.000000001
43
0.0000000001
44
0.0000000001
40
0
40
0
40
0
40
0
40
0.078128894677385388
40
0.078128894677385388
40
0.15625778935476847
40
0.15625778935476847
40
0.20498792755147519
40
0.20498792755147519
40
0.2537180657481789
40
0.2537180657481789
40
0.2537180657481789
40
0.2537180657481789
10
-71.23090332678305
20
49.347470232555807
30
0
10
-71.479293173163896
20
49.269200913829337
30
0
10
-71.710020538832282
20
49.143163832082891
30
0
10
-72.110176405622497
20
48.80974264135061
30
0
10
-72.27577919855608
20
48.605546220676729
30
0
10
-72.473557985579546
20
48.231785544901044
30
0
10
-72.531757545620621
20
48.079491342744646
30
0
10
-72.610036370774253
20
47.764195647799013
30
0
10
-72.629824923846542
20
47.602365100723588
30
0
10
-72.629824923846542
20
47.439931306734579
30
0
0
LINE
5
217
100
AcDbEntity
8
0
100
AcDbLine
10
-72.629824923846542
20
47.439931306734579
30
0
11
-72.629824923846556
21
-28.107833327020728
31
0
0
ARC
5
218
100
AcDbEntity
8
0
100
AcDbCircle
10
-70.629824923846556
20
-28.107833327020725
30
0
40
1.9999999999999929
100
AcDbArc
50
180
51
270
0
LINE
5
219
100
AcDbEntity
8
0
100
AcDbLine
10
-70.629824923846556
20
-30.107833327020717
30
0
11
-7.9088963273581037
21
-30.107833327020725
31
0
0
ARC
5
220
100
AcDbEntity
8
0
100
AcDbCircle
10
-7.9088963273580681
20
-32.107833327020693
30
0
40
1.9999999999999574
100
AcDbArc
50
0
51
90.000000000001009
0
LINE
5
221
100
AcDbEntity
8
0
100
AcDbLine
10
-5.9088963273581108
20
-32.107833327020735
30
0
11
-5.9088963273582005
21
-44.868087734461426
31
0
0
ARC
5
222
100
AcDbEntity
8
0
100
AcDbCircle
10
-3.9088963273581889
20
-44.868087734461433
30
0
40
2.0000000000000107
100
AcDbArc
50
180
51
267.27996538953346
0
LINE
5
223
100
AcDbEntity
8
0
100
AcDbLine
10
-4.0038077864829091
20
-46.86583441883532
30
0
11
8.5765640163741708
21
-47.463518526375111
31
0
0
SPLINE
5
224
100
AcDbEntity
8
0
100
AcDbSpline
70
1064
71
3
72
14
73
10
74
0
42
0.000000001
43
0.0000000001
44
0.0000000001
40
0
40
0
40
0
40
0
40
2.5635705090380894
40
2.5635705090380894
40
4.459580047686682
40
4.459580047686682
40
5.7078079927188528
40
5.7078079927188528
40
8.9517257516560793
40
8.9517257516560793
40
8.9517257516560793
40
8.9517257516560793
10
39.921385076153477
20
-55.696809327020738
30
0
10
32.50201553455787
20
-51.457234192015768
30
0
10
29.994688209779525
20
-50.051772729067892
30
0
10
27.547494538873458
20
-48.87204780938503
30
0
10
26.850869980523875
20
-48.642874609809994
30
0
10
25.268793204147766
20
-48.386849250897356
30
0
10
24.493098352858276
20
-48.313448277304552
30
0
10
21.262906801815404
20
-48.07354515069931
30
0
10
16.498985566007978
20
-47.839906881794917
30
0
10
8.5765640163741708
20
-47.463518526375111
30
0
0
LINE
5
225
100
AcDbEntity
8
0
100
AcDbLine
10
39.921385076153477
20
-55.696809327020738
30
0
11
49.471960732648554
21
-61.154197970523008
31
0
0
ARC
5
226
100
AcDbEntity
8
0
100
AcDbCircle
10
50.464227210997535
20
-59.417705172972461
30
0
40
2.0000000000000067
100
AcDbArc
50
240.25549479411657
51
330.55304502000206
0
LINE
5
227
100
AcDbEntity
8
0
100
AcDbLine
10
52.205849638303228
20
-60.400940302890966
30
0
11
71.683063726990667
21
-25.900593594262254
31
0
0
ARC
5
228
100
AcDbEntity
8
0
100
AcDbCircle
10
69.94144129968501
20
-24.917358464343735
30
0
40
1.9999999999999938
100
AcDbArc
50
-29.44695497999858
51
58.387700289378401
0
LINE
5
229
100
AcDbEntity
8
0
100
AcDbLine
10
70.989778768679315
20
-23.214129603884111
30
0
11
62.621863700183127
21
-18.063677361488875
31
0
0
LINE
5
230
100
AcDbEntity
8
0
100
AcDbLine
10
62.621863700183127
20
-18.063677361488875
30
0
11
56.576553045924101
21
-14.463537657116534
31
0
0
ENDSEC
0
SECTION
2
OBJECTS
0
DICTIONARY
5
C
100
AcDbDictionary
3
ACAD_GROUP
350
D
3
ACAD_MLINESTYLE
350
17
0
DICTIONARY
5
D
100
AcDbDictionary
0
DICTIONARY
5
1A
330
C
100
AcDbDictionary
0
DICTIONARY
5
17
100
AcDbDictionary
0
ENDSEC
0
EOF
