0
SECTION
2
HEADER
9
$INSUNITS
70
4
9
$ACADVER
1
AC1014
9
$HANDSEED
5
FFFF
0
ENDSEC
0
SECTION
2
TABLES
0
TABLE
2
VPORT
5
8
100
AcDbSymbolTable
0
ENDTAB
0
TABLE
2
LTYPE
5
5
100
AcDbSymbolTable
0
LTYPE
5
14
100
AcDbSymbolTableRecord
100
AcDbLinetypeTableRecord
2
BYBLOCK
70
0
0
LTYPE
5
15
100
AcDbSymbolTableRecord
100
AcDbLinetypeTableRecord
2
BYLAYER
70
0
0
ENDTAB
0
TABLE
2
LAYER
5
2
100
AcDbSymbolTable
70
2
0
LAYER
5
50
100
AcDbSymbolTableRecord
100
AcDbLayerTableRecord
2
0
70
0
6
CONTINUOUS
0
ENDTAB
0
TABLE
2
STYLE
5
3
100
AcDbSymbolTable
70
1
0
STYLE
5
11
100
AcDbSymbolTableRecord
100
AcDbTextStyleTableRecord
2
STANDARD
70
0
0
ENDTAB
0
TABLE
2
VIEW
5
6
100
AcDbSymbolTable
70
0
0
ENDTAB
0
TABLE
2
UCS
5
7
100
AcDbSymbolTable
70
0
0
ENDTAB
0
TABLE
2
APPID
5
9
100
AcDbSymbolTable
70
2
0
APPID
5
12
100
AcDbSymbolTableRecord
100
AcDbRegAppTableRecord
2
ACAD
70
0
0
ENDTAB
0
TABLE
2
DIMSTYLE
5
A
100
AcDbSymbolTable
70
1
0
ENDTAB
0
TABLE
2
BLOCK_RECORD
5
1
100
AcDbSymbolTable
70
1
0
BLOCK_RECORD
5
1F
100
AcDbSymbolTableRecord
100
AcDbBlockTableRecord
2
*MODEL_SPACE
0
BLOCK_RECORD
5
1B
100
AcDbSymbolTableRecord
100
AcDbBlockTableRecord
2
*PAPER_SPACE
0
ENDTAB
0
ENDSEC
0
SECTION
2
BLOCKS
0
BLOCK
5
20
100
AcDbEntity
100
AcDbBlockBegin
2
*MODEL_SPACE
0
ENDBLK
5
21
100
AcDbEntity
100
AcDbBlockEnd
0
BLOCK
5
1C
100
AcDbEntity
100
AcDbBlockBegin
2
*PAPER_SPACE
0
ENDBLK
5
1D
100
AcDbEntity
100
AcDbBlockEnd
0
ENDSEC
0
SECTION
2
ENTITIES
0
SPLINE
5
100
100
AcDbEntity
8
0
100
AcDbSpline
70
1064
71
3
72
17
73
13
74
0
42
0.000000001
43
0.0000000001
44
0.0000000001
40
0
40
0
40
0
40
0
40
0.078128894677386332
40
0.078128894677386332
40
0.078128894677386332
40
0.15625778935477097
40
0.15625778935477097
40
0.15625778935477097
40
0.20554849180008961
40
0.20554849180008961
40
0.20554849180008961
40
0.25483919424540791
40
0.25483919424540791
40
0.25483919424540791
40
0.25483919424540791
10
69.589786564010694
20
45.232413634596249
30
0
10
69.589814808274639
20
45.486983614853223
30
0
10
69.540119604569256
20
45.739125284080401
30
0
10
69.443498146896403
20
45.974646343782013
30
0
10
69.346876689223564
20
46.210167403483602
30
0
10
69.205176485179535
20
46.424564434260233
30
0
10
69.02637341435161
20
46.605769670134613
30
0
10
68.913568427196935
20
46.720090158091089
30
0
10
68.787104735575952
20
46.820075656358028
30
0
10
68.649843827300742
20
46.903463797919194
30
0
10
68.512582919025519
20
46.986851939480346
30
0
10
68.365567927038754
20
47.053009004811443
30
0
10
68.212125352428387
20
47.100438061206333
30
0
0
LINE
5
101
100
AcDbEntity
8
0
100
AcDbLine
10
69.589786564010694
20
45.232413634596249
30
0
11
69.588034808038287
21
29.443562351929575
31
0
0
LINE
5
102
100
AcDbEntity
8
0
100
AcDbLine
10
69.588034808038273
20
29.443562351929586
30
0
11
55.143493017687639
21
29.445167551963564
31
0
0
ARC
5
103
100
AcDbEntity
8
0
100
AcDbCircle
10
51.098738365015855
20
29.400617039139149
30
0
40
4.0449999936344723
100
AcDbArc
50
0.63105265065374938
51
81.747689480367526
0
LINE
5
104
100
AcDbEntity
8
0
100
AcDbLine
10
51.679327450903131
20
33.403733482842924
30
0
11
51.681360471011494
21
51.698953926248087
31
0
0
SPLINE
5
105
100
AcDbEntity
8
0
100
AcDbSpline
70
1064
71
3
72
11
73
7
74
0
42
0.000000001
43
0.0000000001
44
0.0000000001
40
0.0057422718655329398
40
0.0057422718655329398
40
0.0057422718655329398
40
0.0057422718655329398
40
0.92618374607030218
40
0.92618374607030218
40
0.92618374607030218
40
1.7219486129117862
40
1.7219486129117862
40
1.7219486129117862
40
1.7219486129117862
10
51.681360471011494
20
51.698953926248087
30
0
10
54.659957462432573
20
50.965191914500096
30
0
10
57.626931053626961
20
50.181528073269924
30
0
10
60.580358743707464
20
49.352181425437422
30
0
10
63.133735636011259
20
48.635172313144814
30
0
10
65.678067699553779
20
47.883714564688688
30
0
10
68.212125352428444
20
47.100438061206297
30
0
0
LINE
5
106
100
AcDbEntity
8
0
100
AcDbLine
10
-41.647801748776914
20
-30.758339030517099
30
0
11
-41.339728232143365
21
-30.840512390091035
31
0
0
LINE
5
107
100
AcDbEntity
8
0
100
AcDbLine
10
-41.339728232143358
20
-30.840512390091043
30
0
11
-41.00329219953629
21
-31.066891956939422
31
0
0
LINE
5
108
100
AcDbEntity
8
0
100
AcDbLine
10
-41.003292199536297
20
-31.066891956939422
30
0
11
-40.776699655993234
21
-31.403687321175205
31
0
0
LINE
5
109
100
AcDbEntity
8
0
100
AcDbLine
10
-40.776699655993234
20
-31.403687321175205
30
0
11
-40.693617859682448
21
-31.711786489762495
31
0
0
LINE
5
110
100
AcDbEntity
8
0
100
AcDbLine
10
-40.693617859682462
20
-31.711786489762495
30
0
11
-40.693640272871569
21
-31.913473655818159
31
0
0
LINE
5
111
100
AcDbEntity
8
0
100
AcDbLine
10
-40.693640272871562
20
-31.913473655818159
30
0
11
-40.776790544316555
21
-32.221554351287743
31
0
0
LINE
5
112
100
AcDbEntity
8
0
100
AcDbLine
10
-40.776790544316562
20
-32.221554351287743
30
0
11
-41.003457937378684
21
-32.558299345433795
31
0
0
LINE
5
113
100
AcDbEntity
8
0
100
AcDbLine
10
-41.003457937378684
20
-32.558299345433795
30
0
11
-41.340015067859625
21
-32.784651742618259
31
0
0
LINE
5
114
100
AcDbEntity
8
0
100
AcDbLine
10
-41.340015067859625
20
-32.784651742618259
30
0
11
-41.648120649699258
21
-32.867979008104676
31
0
0
LINE
5
115
100
AcDbEntity
8
0
100
AcDbLine
10
-41.648120649699258
20
-32.867979008104676
30
0
11
-41.850023481589659
21
-32.867956570949012
31
0
0
LINE
5
116
100
AcDbEntity
8
0
100
AcDbLine
10
-41.850023481589659
20
-32.867956570949012
30
0
11
-42.157857278184601
21
-32.784563432415723
31
0
0
LINE
5
117
100
AcDbEntity
8
0
100
AcDbLine
10
-42.157857278184601
20
-32.784563432415723
30
0
11
-42.494367919986537
21
-32.55813366286737
31
0
0
LINE
5
118
100
AcDbEntity
8
0
100
AcDbLine
10
-42.494367919986544
20
-32.55813366286737
30
0
11
-42.720912814771957
21
-32.221409121265097
31
0
0
LINE
5
119
100
AcDbEntity
8
0
100
AcDbLine
10
-42.72091281477195
20
-32.221409121265097
30
0
11
-42.802772269236783
21
-31.913323756232018
31
0
0
LINE
5
120
100
AcDbEntity
8
0
100
AcDbLine
10
-42.802772269236783
20
-31.913323756232018
30
0
11
-42.802749837270341
21
-31.711467620067324
31
0
0
LINE
5
121
100
AcDbEntity
8
0
100
AcDbLine
10
-42.802749837270355
20
-31.711467620067324
30
0
11
-42.72082191070897
21
-31.403400456477613
31
0
0
LINE
5
122
100
AcDbEntity
8
0
100
AcDbLine
10
-42.72082191070897
20
-31.403400456477609
30
0
11
-42.49420218214415
21
-31.066726274373
31
0
0
LINE
5
123
100
AcDbEntity
8
0
100
AcDbLine
10
-42.49420218214415
20
-31.066726274373003
30
0
11
-42.157712060970205
21
-30.840418944477015
31
0
0
LINE
5
124
100
AcDbEntity
8
0
100
AcDbLine
10
-42.157712060970205
20
-30.840418944477015
30
0
11
-41.849873560400333
21
-30.758316574582981
31
0
0
LINE
5
125
100
AcDbEntity
8
0
100
AcDbLine
10
-41.849873560400333
20
-30.758316574582981
30
0
11
-41.647801748776914
21
-30.758339030517099
31
0
0
LINE
5
126
100
AcDbEntity
8
0
100
AcDbLine
10
51.223208888865592
20
-9.6609215148189165
30
0
11
51.02130148651576
21
-9.6608990771553387
31
0
0
LINE
5
127
100
AcDbEntity
8
0
100
AcDbLine
10
51.02130148651576
20
-9.6608990771553405
30
0
11
50.713221935393591
21
-9.5775053661055072
31
0
0
LINE
5
128
100
AcDbEntity
8
0
100
AcDbLine
10
50.713221935393591
20
-9.5775053661054965
30
0
11
50.376959492117066
21
-9.35107830238025
31
0
0
LINE
5
129
100
AcDbEntity
8
0
100
AcDbLine
10
50.376959492117066
20
-9.3510783023802624
30
0
11
50.150414699146907
21
-9.0145981142753104
31
0
0
LINE
5
130
100
AcDbEntity
8
0
100
AcDbLine
10
50.150414699146907
20
-9.0145981142753051
30
0
11
50.068557241101381
21
-8.7065202629446485
31
0
0
LINE
5
131
100
AcDbEntity
8
0
100
AcDbLine
10
50.068557241101381
20
-8.7065202629446503
30
0
11
50.068579700794594
21
-8.5044146251162402
31
0
0
LINE
5
132
100
AcDbEntity
8
0
100
AcDbLine
10
50.068579700794594
20
-8.5044146251162367
30
0
11
50.150503060949887
21
-8.196608248101338
31
0
0
LINE
5
133
100
AcDbEntity
8
0
100
AcDbLine
10
50.15050306094988
20
-8.196608248101338
30
0
11
50.37713169266717
21
-7.8601649704461174
31
0
0
LINE
5
134
100
AcDbEntity
8
0
100
AcDbLine
10
50.37713169266717
20
-7.8601649704461174
30
0
11
50.71336417455268
21
-7.6336225384328449
31
0
0
LINE
5
135
100
AcDbEntity
8
0
100
AcDbLine
10
50.713364174552694
20
-7.6336225384328404
30
0
11
51.02143450424979
21
-7.5517670789140006
31
0
0
LINE
5
136
100
AcDbEntity
8
0
100
AcDbLine
10
51.021434504249783
20
-7.5517670789140112
30
0
11
51.223544640412882
21
-7.5517895391070731
31
0
0
LINE
5
137
100
AcDbEntity
8
0
100
AcDbLine
10
51.223544640412882
20
-7.5517895391070677
30
0
11
51.531604290744049
21
-7.6337154675792327
31
0
0
LINE
5
138
100
AcDbEntity
8
0
100
AcDbLine
10
51.531604290744056
20
-7.6337154675792362
30
0
11
51.868027605083171
21
-7.8603306519806413
31
0
0
LINE
5
139
100
AcDbEntity
8
0
100
AcDbLine
10
51.868027605083171
20
-7.860330651980636
30
0
11
52.094386958230352
21
-8.1968981250905717
31
0
0
LINE
5
140
100
AcDbEntity
8
0
100
AcDbLine
10
52.094386958230352
20
-8.1968981250905681
30
0
11
52.177711676498355
21
-8.5047504487882382
31
0
0
LINE
5
141
100
AcDbEntity
8
0
100
AcDbLine
10
52.177711676498355
20
-8.5047504487882364
30
0
11
52.177689239342683
21
-8.7066532806786565
31
0
0
LINE
5
142
100
AcDbEntity
8
0
100
AcDbLine
10
52.177689239342683
20
-8.7066532806786601
30
0
11
52.094293497302687
21
-9.0147403348431911
31
0
0
LINE
5
143
100
AcDbEntity
8
0
100
AcDbLine
10
52.094293497302687
20
-9.0147403348431965
30
0
11
51.867868434206706
21
-9.3512439821085493
31
0
0
LINE
5
144
100
AcDbEntity
8
0
100
AcDbLine
10
51.867868434206706
20
-9.3512439821085547
30
0
11
51.531314470705176
21
-9.5775942493325008
31
0
0
LINE
5
145
100
AcDbEntity
8
0
100
AcDbLine
10
51.531314470705169
20
-9.5775942493324973
30
0
11
51.223208888865592
21
-9.6609215148189183
31
0
0
LINE
5
146
100
AcDbEntity
8
0
100
AcDbLine
10
51.227442884087047
20
28.439078249922332
30
0
11
51.025535481737222
21
28.439100687585924
31
0
0
LINE
5
147
100
AcDbEntity
8
0
100
AcDbLine
10
51.025535481737222
20
28.439100687585935
30
0
11
50.717455930615031
21
28.522494398635718
31
0
0
LINE
5
148
100
AcDbEntity
8
0
100
AcDbLine
10
50.717455930615017
20
28.522494398635693
30
0
11
50.3811934873385
21
28.74892146236094
31
0
0
LINE
5
149
100
AcDbEntity
8
0
100
AcDbLine
10
50.3811934873385
20
28.748921462360954
30
0
11
50.154648694368369
21
29.085401650465879
31
0
0
LINE
5
150
100
AcDbEntity
8
0
100
AcDbLine
10
50.154648694368376
20
29.085401650465855
30
0
11
50.072791236322864
21
29.393479501796548
31
0
0
LINE
5
151
100
AcDbEntity
8
0
100
AcDbLine
10
50.072791236322864
20
29.393479501796563
30
0
11
50.072813696016055
21
29.595585139625019
31
0
0
LINE
5
152
100
AcDbEntity
8
0
100
AcDbLine
10
50.072813696016041
20
29.595585139625015
30
0
11
50.154737056171328
21
29.903391516639903
31
0
0
LINE
5
153
100
AcDbEntity
8
0
100
AcDbLine
10
50.154737056171328
20
29.903391516639914
30
0
11
50.381365687888568
21
30.239834794295106
31
0
0
LINE
5
154
100
AcDbEntity
8
0
100
AcDbLine
10
50.381365687888568
20
30.239834794295113
30
0
11
50.717598169774185
21
30.466377226308378
31
0
0
LINE
5
155
100
AcDbEntity
8
0
100
AcDbLine
10
50.717598169774185
20
30.466377226308367
30
0
11
51.02566849947123
21
30.548232685827251
31
0
0
LINE
5
156
100
AcDbEntity
8
0
100
AcDbLine
10
51.02566849947123
20
30.548232685827259
30
0
11
51.227778635634344
21
30.548210225634186
31
0
0
LINE
5
157
100
AcDbEntity
8
0
100
AcDbLine
10
51.227778635634344
20
30.548210225634172
30
0
11
51.535838285965518
21
30.466284297162009
31
0
0
LINE
5
158
100
AcDbEntity
8
0
100
AcDbLine
10
51.535838285965518
20
30.466284297162012
30
0
11
51.872261600304618
21
30.239669112760573
31
0
0
LINE
5
159
100
AcDbEntity
8
0
100
AcDbLine
10
51.872261600304618
20
30.239669112760581
30
0
11
52.098620953451807
21
29.903101639650632
31
0
0
LINE
5
160
100
AcDbEntity
8
0
100
AcDbLine
10
52.098620953451807
20
29.903101639650636
30
0
11
52.181945671719802
21
29.595249315953023
31
0
0
LINE
5
161
100
AcDbEntity
8
0
100
AcDbLine
10
52.181945671719809
20
29.595249315953012
30
0
11
52.181923234564138
21
29.393346484062587
31
0
0
LINE
5
162
100
AcDbEntity
8
0
100
AcDbLine
10
52.181923234564138
20
29.393346484062583
30
0
11
52.098527492524141
21
29.085259429898031
31
0
0
LINE
5
163
100
AcDbEntity
8
0
100
AcDbLine
10
52.098527492524141
20
29.085259429898038
30
0
11
51.872102429428146
21
28.748755782632664
31
0
0
LINE
5
164
100
AcDbEntity
8
0
100
AcDbLine
10
51.872102429428146
20
28.748755782632671
30
0
11
51.535548465926631
21
28.522405515408721
31
0
0
LINE
5
165
100
AcDbEntity
8
0
100
AcDbLine
10
51.535548465926624
20
28.522405515408707
30
0
11
51.227442884087047
21
28.439078249922321
31
0
0
LINE
5
166
100
AcDbEntity
8
0
100
AcDbLine
10
-66.936378243171859
20
-24.282662836927969
30
0
11
-61.047078942255418
21
-20.658701098677223
31
0
0
LINE
5
167
100
AcDbEntity
8
0
100
AcDbLine
10
-61.047078942255418
20
-20.658701098677223
30
0
11
-55.345327209063981
21
-17.264017922948451
31
0
0
LINE
5
168
100
AcDbEntity
8
0
100
AcDbLine
10
-55.345327209063981
20
-17.264017922948447
30
0
11
-46.229639403029935
21
-32.574839598119887
31
0
0
LINE
5
169
100
AcDbEntity
8
0
100
AcDbLine
10
-46.229639403029935
20
-32.574839598119894
30
0
11
-60.022542774115266
21
-40.35961802558986
31
0
0
LINE
5
170
100
AcDbEntity
8
0
100
AcDbLine
10
-60.022542774115273
20
-40.35961802558986
30
0
11
-67.614356180805515
21
-26.90860593748085
31
0
0
ARC
5
171
100
AcDbEntity
8
0
100
AcDbCircle
10
-65.911813391946353
20
-25.947682916576635
30
0
40
1.9550000000000036
100
AcDbArc
50
121.60593252142843
51
209.44058362959484
0
LINE
5
172
100
AcDbEntity
8
0
100
AcDbLine
10
-24.100736705859042
20
33.483578403581468
30
0
11
-24.017656932439984
21
33.175486736652651
31
0
0
LINE
5
173
100
AcDbEntity
8
0
100
AcDbLine
10
-24.017656932439984
20
33.175486736652651
30
0
11
-24.01767937334909
21
32.97355012906494
31
0
0
LINE
5
174
100
AcDbEntity
8
0
100
AcDbLine
10
-24.01767937334909
20
32.97355012906494
30
0
11
-24.100825020800677
21
32.665730194194552
31
0
0
LINE
5
175
100
AcDbEntity
8
0
100
AcDbLine
10
-24.100825020800674
20
32.665730194194545
30
0
11
-24.327496985218499
21
32.329222586645528
31
0
0
LINE
5
176
100
AcDbEntity
8
0
100
AcDbLine
10
-24.327496985218502
20
32.329222586645542
30
0
11
-24.664065285509675
21
32.102618469656662
31
0
0
LINE
5
177
100
AcDbEntity
8
0
100
AcDbLine
10
-24.664065285509672
20
32.102618469656655
30
0
11
-24.972159722456773
21
32.019294218310513
31
0
0
LINE
5
178
100
AcDbEntity
8
0
100
AcDbLine
10
-24.972159722456773
20
32.019294218310506
30
0
11
-25.17406255434728
21
32.019316655466184
31
0
0
LINE
5
179
100
AcDbEntity
8
0
100
AcDbLine
10
-25.17406255434728
20
32.019316655466177
30
0
11
-25.481885207690361
21
32.102706775257687
31
0
0
LINE
5
180
100
AcDbEntity
8
0
100
AcDbLine
10
-25.481885207690354
20
32.102706775257694
30
0
11
-25.818406962385122
21
32.329388269211393
31
0
0
LINE
5
181
100
AcDbEntity
8
0
100
AcDbLine
10
-25.818406962385122
20
32.329388269211414
30
0
11
-26.044956423700562
21
32.665875391069584
31
0
0
LINE
5
182
100
AcDbEntity
8
0
100
AcDbLine
10
-26.044956423700562
20
32.665875391069548
30
0
11
-26.126811369721072
21
32.973699968519441
31
0
0
LINE
5
183
100
AcDbEntity
8
0
100
AcDbLine
10
-26.126811369721075
20
32.973699968519441
30
0
11
-26.126788910027905
21
33.175805606347858
31
0
0
LINE
5
184
100
AcDbEntity
8
0
100
AcDbLine
10
-26.126788910027901
20
33.175805606347851
30
0
11
-26.044862981555777
21
33.483865256679032
31
0
0
LINE
5
185
100
AcDbEntity
8
0
100
AcDbLine
10
-26.044862981555781
20
33.483865256679046
30
0
11
-25.81824127981929
21
33.820298246377945
31
0
0
LINE
5
186
100
AcDbEntity
8
0
100
AcDbLine
10
-25.81824127981929
20
33.820298246377945
30
0
11
-25.481754157961049
21
34.046847707693409
31
0
0
LINE
5
187
100
AcDbEntity
8
0
100
AcDbLine
10
-25.481754157961049
20
34.046847707693402
30
0
11
-25.173929580511299
21
34.12870265371393
31
0
0
LINE
5
188
100
AcDbEntity
8
0
100
AcDbLine
10
-25.173929580511306
20
34.12870265371393
30
0
11
-24.971823942682878
21
34.128680194020738
31
0
0
LINE
5
189
100
AcDbEntity
8
0
100
AcDbLine
10
-24.971823942682878
20
34.128680194020731
30
0
11
-24.663764292351644
21
34.046754265548572
31
0
0
LINE
5
190
100
AcDbEntity
8
0
100
AcDbLine
10
-24.663764292351644
20
34.046754265548572
30
0
11
-24.327331302652688
21
33.820132563812194
31
0
0
LINE
5
191
100
AcDbEntity
8
0
100
AcDbLine
10
-24.327331302652688
20
33.82013256381218
30
0
11
-24.100736705859042
21
33.483578403581461
31
0
0
LINE
5
192
100
AcDbEntity
8
0
100
AcDbLine
10
53.112638250547953
20
-12.15571352500346
30
0
11
69.58341949632478
21
-12.157543901962454
31
0
0
LINE
5
193
100
AcDbEntity
8
0
100
AcDbLine
10
69.583419496324794
20
-12.157543901962446
30
0
11
69.581982242271692
21
-25.1125437592368
31
0
0
ARC
5
194
100
AcDbEntity
8
0
100
AcDbCircle
10
67.626982254302888
20
-25.112326867558856
30
0
40
1.9549999999999998
100
AcDbArc
50
269.9936420513809
51
359.99364348966566
0
LINE
5
195
100
AcDbEntity
8
0
100
AcDbLine
10
67.626765313550351
20
-27.067326855522204
30
0
11
50.671879501316738
21
-27.065445420376339
31
0
0
LINE
5
196
100
AcDbEntity
8
0
100
AcDbLine
10
50.671879501316724
20
-27.065445420376342
30
0
11
50.673482043347292
21
-12.636581894402884
31
0
0
ARC
5
197
100
AcDbEntity
8
0
100
AcDbCircle
10
51.148487700518487
20
-8.6193792217144782
30
0
40
4.0451882141378164
100
AcDbArc
50
263.25649292018284
51
299.04866570012331
0
ARC
5
198
100
AcDbEntity
8
0
100
AcDbCircle
10
51.148487700518487
20
-8.6193792217144782
30
0
40
4.0451882217494228
100
AcDbArc
50
-6.3380041303260608
51
208.20799013497131
0
LINE
5
199
100
AcDbEntity
8
0
100
AcDbLine
10
47.58371596565447
20
-10.531433150790477
30
0
11
47.581879520765241
21
-27.06510196551416
31
0
0
LINE
5
200
100
AcDbEntity
8
0
100
AcDbLine
10
47.581879520765249
20
-27.065101965514152
30
0
11
16.626752133387601
21
-27.061658970885325
31
0
0
LINE
5
201
100
AcDbEntity
8
0
100
AcDbLine
10
16.626752133387598
20
-27.061658970885325
30
0
11
4.9058267322431632
21
-27.060356439458332
31
0
0
ARC
5
202
100
AcDbEntity
8
0
100
AcDbCircle
10
4.9055994740139379
20
-29.10535642683087
30
0
40
2.0449999999999982
100
AcDbArc
50
89.993632793437214
51
179.99363280691099
0
LINE
5
203
100
AcDbEntity
8
0
100
AcDbLine
10
2.8605994866413442
20
-29.105129169082041
30
0
11
2.8591659960595139
21
-42.004527482134648
31
0
0
ARC
5
204
100
AcDbEntity
8
0
100
AcDbCircle
10
0.90416600813118864
20
-42.004310225949339
30
0
40
1.9550000000000047
100
AcDbArc
50
272.71366741736512
51
359.99363280691102
0
LINE
5
205
100
AcDbEntity
8
0
100
AcDbLine
10
0.99672494744086571
20
-43.957117907917507
30
0
11
-8.7881964567029218
21
-44.420902414071854
31
0
0
SPLINE
5
206
100
AcDbEntity
8
0
100
AcDbSpline
70
1064
71
3
72
14
73
10
74
0
42
0.000000001
43
0.0000000001
44
0.0000000001
40
0
40
0
40
0
40
0
40
4.4467849440084839
40
4.4467849440084839
40
4.4467849440084839
40
6.1566030197387125
40
6.1566030197387125
40
6.1566030197387125
40
8.7419244398895515
40
8.7419244398895515
40
8.7419244398895515
40
8.7419244398895515
10
-8.7881964567029236
20
-44.420902414071847
30
0
10
-23.59423277701331
20
-45.122677109984139
30
0
10
-25.820510842909261
20
-45.248359673194955
30
0
10
-27.607115772359432
20
-45.720855631816889
30
0
10
-28.294026603308964
20
-45.90252007604137
30
0
10
-29.000039885927652
20
-46.156695253283345
30
0
10
-29.974027282467709
20
-46.625226692232722
30
0
10
-31.446794868169022
20
-47.33369367919569
30
0
10
-33.96307623789513
20
-48.742566141660426
30
0
10
-41.500199486747263
20
-53.048317075389271
30
0
0
LINE
5
207
100
AcDbEntity
8
0
100
AcDbLine
10
-41.500199486747263
20
-53.048317075389271
30
0
11
-48.384678162248548
21
-56.981230138711034
31
0
0
ARC
5
208
100
AcDbEntity
8
0
100
AcDbCircle
10
-49.354430006945407
20
-55.283700651571841
30
0
40
1.9550000000000036
100
AcDbArc
50
209.44058135506688
51
299.73813801279351
0
LINE
5
209
100
AcDbEntity
8
0
100
AcDbLine
10
-51.056972833951292
20
-56.244623604888517
30
0
11
-58.503743693933281
21
-43.050593565062201
31
0
0
LINE
5
210
100
AcDbEntity
8
0
100
AcDbLine
10
-58.503743693933288
20
-43.050593565062201
30
0
11
-44.245645281947255
21
-35.003256905903193
31
0
0
ARC
5
211
100
AcDbEntity
8
0
100
AcDbCircle
10
-41.758634625763669
20
-31.813146720340761
30
0
40
4.0449999999999857
100
AcDbArc
50
-127.9399874138
51
24.753073346862838
0
LINE
5
212
100
AcDbEntity
8
0
100
AcDbLine
10
-38.085286331156986
20
-30.119471041082747
30
0
11
-22.063355794043691
21
-21.076619376275673
31
0
0
ARC
5
213
100
AcDbEntity
8
0
100
AcDbCircle
10
-23.068515680370272
20
-19.295698658523229
30
0
40
2.0449999999999817
100
AcDbArc
50
299.44058362991308
51
359.99363280691102
0
LINE
5
214
100
AcDbEntity
8
0
100
AcDbLine
10
-21.023515692997698
20
-19.295925916271983
30
0
11
-21.021938417227467
21
-5.1026632102339198
31
0
0
ARC
5
215
100
AcDbEntity
8
0
100
AcDbCircle
10
-25.102939333073593
20
-5.0681650091598396
30
0
40
4.0811467262295649
100
AcDbArc
50
-0.48433075190372898
51
181.02011298927289
0
LINE
5
216
100
AcDbEntity
8
0
100
AcDbLine
10
-29.183439226507907
20
-5.1408232550568123
30
0
11
-29.183681740126922
21
-7.3231046098204295
31
0
0
LINE
5
217
100
AcDbEntity
8
0
100
AcDbLine
10
-29.183681740126922
20
-7.3231046098204278
30
0
11
-40.390248179502173
21
-7.3218590858791091
31
0
0
ARC
5
218
100
AcDbEntity
8
0
100
AcDbCircle
10
-23.979754299336228
20
3.3150956066783355
30
0
40
19.55630625968217
100
AcDbArc
50
180.02619437800493
51
212.9505020972075
0
LINE
5
219
100
AcDbEntity
8
0
100
AcDbLine
10
-43.536058515268522
20
3.3061548912343675
30
0
11
-43.536060528830198
21
3.3161822248380424
31
0
0
LINE
5
220
100
AcDbEntity
8
0
100
AcDbLine
10
-43.536060528830198
20
3.3161822248380446
30
0
11
-43.535631725423478
21
11.03353087002764
31
0
0
LINE
5
221
100
AcDbEntity
8
0
100
AcDbLine
10
-43.535631725423471
20
11.033530870027635
30
0
11
-27.555022206556213
21
11.031754969115401
31
0
0
ARC
5
222
100
AcDbEntity
8
0
100
AcDbCircle
10
-27.554794948807476
20
13.076754956488035
30
0
40
2.0450000000000399
100
AcDbArc
50
269.99363280689914
51
321.31144535340854
0
ARC
5
223
100
AcDbEntity
8
0
100
AcDbCircle
10
-24.432573790097702
20
10.576407973346376
30
0
40
1.955000000000036
100
AcDbArc
50
89.993632806898916
51
141.3114453534088
0
LINE
5
224
100
AcDbEntity
8
0
100
AcDbLine
10
-24.432356533912476
20
12.531407961274734
30
0
11
-12.554855606452513
21
12.530088032600709
31
0
0
ARC
5
225
100
AcDbEntity
8
0
100
AcDbCircle
10
-12.554628348703737
20
14.575088019973288
30
0
40
2.0449999999999866
100
AcDbArc
50
269.99363280689818
51
321.31144535340826
0
ARC
5
226
100
AcDbEntity
8
0
100
AcDbCircle
10
-9.432407189993981
20
12.074741036831673
30
0
40
1.9550000000000449
100
AcDbArc
50
89.99363280689947
51
141.31144535340991
0
LINE
5
227
100
AcDbEntity
8
0
100
AcDbLine
10
-9.4321899338087647
20
14.029741024760041
30
0
11
14.631318244500932
21
14.027066883571887
31
0
0
ARC
5
228
100
AcDbEntity
8
0
100
AcDbCircle
10
14.631545502249693
20
16.072066870944475
30
0
40
2.0449999999999955
100
AcDbArc
50
269.99363280689852
51
359.99363280691102
0
LINE
5
229
100
AcDbEntity
8
0
100
AcDbLine
10
16.676545489622278
20
16.071839613195714
30
0
11
16.680520405631963
21
51.84049099658619
31
0
0
ARC
5
230
100
AcDbEntity
8
0
100
AcDbCircle
10
14.635520418259439
20
51.840718254334959
30
0
40
2.0449999999999289
100
AcDbArc
50
-0.0063671930889917473
51
51.311445353409965
0
ARC
5
231
100
AcDbEntity
8
0
100
AcDbCircle
10
17.13586740140094
20
54.962939413044644
30
0
40
1.9549999999999605
100
AcDbArc
50
179.99363280696826
51
231.31144535340951
0
LINE
5
232
100
AcDbEntity
8
0
100
AcDbLine
10
15.180867413472651
20
54.963156669229917
30
0
11
15.1809539513982
21
55.741876240321048
31
0
0
SPLINE
5
233
100
AcDbEntity
8
0
100
AcDbSpline
70
1064
71
3
72
20
73
16
74
0
42
0.000000001
43
0.0000000001
44
0.0000000001
40
0
40
0
40
0
40
0
40
0.078128894677384375
40
0.078128894677384375
40
0.078128894677384375
40
0.15625778935477036
40
0.15625778935477036
40
0.15625778935477036
40
0.23438668403215451
40
0.23438668403215451
40
0.23438668403215451
40
0.28458137583369159
40
0.28458137583369159
40
0.28458137583369159
40
0.33477606763522683
40
0.33477606763522683
40
0.33477606763522683
40
0.33477606763522683
10
17.328913601899547
20
57.687113061882059
30
0
10
17.075586640666312
20
57.712239270472317
30
0
10
16.81977391599489
20
57.687644870130732
30
0
10
16.575874359084057
20
57.614714205904562
30
0
10
16.331974802173225
20
57.541783541678384
30
0
10
16.104652038422174
20
57.421911127368077
30
0
10
15.906701384558746
20
57.261844221729163
30
0
10
15.708750730695327
20
57.101777316090228
30
0
10
15.543957219004302
20
56.90457657284491
30
0
10
15.42159658211348
20
56.68134183050973
30
0
10
15.342984764005259
20
56.537922431871344
30
0
10
15.282679955847538
20
56.385203453470972
30
0
10
15.242096835326105
20
56.226767497385211
30
0
10
15.201513714804671
20
56.06833154129945
30
0
10
15.180972126576965
20
55.905427276764456
30
0
10
15.180953951398205
20
55.741876240321055
30
0
0
SPLINE
5
234
100
AcDbEntity
8
0
100
AcDbSpline
70
1064
71
3
72
11
73
7
74
0
42
0.000000001
43
0.0000000001
44
0.0000000001
40
0.22006164319785379
40
0.22006164319785379
40
0.22006164319785379
40
0.22006164319785379
40
1.6620876021832365
40
1.6620876021832365
40
1.6620876021832365
40
3.3888673933771725
40
3.3888673933771725
40
3.3888673933771725
40
3.3888673933771725
10
17.328913601899529
20
57.687113061882059
30
0
10
22.136882171995957
20
57.210235193851283
30
0
10
26.99927034155607
20
56.566305626821361
30
0
10
31.724527400419689
20
55.796841563204957
30
0
10
37.382871479342768
20
54.875432976524799
30
0
10
43.009318368064086
20
53.747281925909569
30
0
10
48.591443502941878
20
52.441107321863115
30
0
0
LINE
5
235
100
AcDbEntity
8
0
100
AcDbLine
10
48.591443502941871
20
52.441107321863115
30
0
11
48.589235597407871
21
32.573064171538832
31
0
0
ARC
5
236
100
AcDbEntity
8
0
100
AcDbCircle
10
51.098738365015855
20
29.400617039139149
30
0
40
4.044999993634498
100
AcDbArc
50
128.34507544669322
51
311.16176007732372
0
LINE
5
237
100
AcDbEntity
8
0
100
AcDbLine
10
53.76110535140937
20
26.355321162173347
30
0
11
69.587692382801762
21
26.353562377656822
31
0
0
LINE
5
238
100
AcDbEntity
8
0
100
AcDbLine
10
69.587692382801748
20
26.353562377656814
30
0
11
69.583762870623772
21
-9.0675439210520281
31
0
0
LINE
5
239
100
AcDbEntity
8
0
100
AcDbLine
10
69.583762870623772
20
-9.0675439210520281
30
0
11
55.168951530995727
21
-9.0659420249175184
31
0
0
SPLINE
5
240
100
AcDbEntity
8
0
100
AcDbSpline
70
1064
71
3
72
17
73
13
74
0
42
0.000000001
43
0.0000000001
44
0.0000000001
40
0
40
0
40
0
40
0
40
0.078128894677385138
40
0.078128894677385138
40
0.078128894677385138
40
0.1562577893547708
40
0.1562577893547708
40
0.1562577893547708
40
0.19978917980461672
40
0.19978917980461672
40
0.19978917980461672
40
0.24332057025446063
40
0.24332057025446063
40
0.24332057025446063
40
0.24332057025446063
10
-42.26174818070001
20
51.033386563617256
30
0
10
-42.50026577024407
20
50.944418956456687
30
0
10
-42.719125649606077
20
50.809714139031222
30
0
10
-42.906008852443911
20
50.636854241591564
30
0
10
-43.092892055281744
20
50.463994344151899
30
0
10
-43.244225171038728
20
50.25628463636896
30
0
10
-43.351490112412151
20
50.025416474861323
30
0
10
-43.41125535117289
20
49.896782732856806
30
0
10
-43.456844485177058
20
49.762025986186849
30
0
10
-43.487451777237141
20
49.62352791031951
30
0
10
-43.518059069297209
20
49.485029834452121
30
0
10
-43.533503134215721
20
49.343611197875845
30
0
10
-43.533511015339634
20
49.201771417545721
30
0
0
SPLINE
5
241
100
AcDbEntity
8
0
100
AcDbSpline
70
1064
71
3
72
11
73
7
74
0
42
0.000000001
43
0.0000000001
44
0.0000000001
40
0.13897578484389461
40
0.13897578484389461
40
0.13897578484389461
40
0.13897578484389461
40
1.3352273552944476
40
1.3352273552944476
40
1.3352273552944476
40
2.5023708022604469
40
2.5023708022604469
40
2.5023708022604469
40
2.5023708022604469
10
-42.261748180699996
20
51.033386563617292
30
0
10
-38.521215691177431
20
52.428613748896645
30
0
10
-34.704789871744886
20
53.688788205248954
30
0
10
-30.826208136724023
20
54.751107266385411
30
0
10
-27.041986895102532
20
55.787581583848869
30
0
10
-23.236525419067775
20
56.627601382752346
30
0
10
-19.357275445403317
20
57.253880723014696
30
0
0
LINE
5
242
100
AcDbEntity
8
0
100
AcDbLine
10
-19.357275445403317
20
57.253880723014674
30
0
11
-18.345983395582021
21
57.390266897800316
31
0
0
LINE
5
243
100
AcDbEntity
8
0
100
AcDbLine
10
-18.345983395582021
20
57.390266897800323
30
0
11
-18.346634671714536
21
51.529698050178908
31
0
0
LINE
5
244
100
AcDbEntity
8
0
100
AcDbLine
10
-18.34663467171454
20
51.529698050178901
30
0
11
-20.764510786231426
21
51.529966745086426
31
0
0
ARC
5
245
100
AcDbEntity
8
0
100
AcDbCircle
10
-20.764738043980188
20
49.484966757713849
30
0
40
2.0449999999999982
100
AcDbArc
50
89.993632806898532
51
179.99363280691099
0
LINE
5
246
100
AcDbEntity
8
0
100
AcDbLine
10
-22.809738031352779
20
49.485194015462611
30
0
11
-22.81119546472052
21
36.370344313393936
31
0
0
ARC
5
247
100
AcDbEntity
8
0
100
AcDbCircle
10
-25.050674054156225
20
33.001849004288218
30
0
40
4.0450000000010053
100
AcDbArc
50
56.382826173676506
51
193.64974855058063
0
LINE
5
248
100
AcDbEntity
8
0
100
AcDbLine
10
-28.981428958994584
20
32.047285817224484
30
0
11
-43.534517154429082
21
32.048903079855869
31
0
0
LINE
5
249
100
AcDbEntity
8
0
100
AcDbLine
10
-43.534517154429082
20
32.048903079855869
30
0
11
-43.534411026727334
21
33.003903073959016
31
0
0
LINE
5
250
100
AcDbEntity
8
0
100
AcDbLine
10
-43.534411026727341
20
33.003903073959016
30
0
11
-43.533511015339641
21
49.201771417545707
31
0
0
LINE
5
251
100
AcDbEntity
8
0
100
AcDbLine
10
-24.021913368570537
20
-5.1264496356763267
30
0
11
-24.105059016022118
21
-5.4342695705466761
31
0
0
LINE
5
252
100
AcDbEntity
8
0
100
AcDbLine
10
-24.105059016022118
20
-5.434269570546677
30
0
11
-24.331730980439957
21
-5.7707771780957007
31
0
0
LINE
5
253
100
AcDbEntity
8
0
100
AcDbLine
10
-24.331730980439961
20
-5.7707771780957096
30
0
11
-24.668299280731041
21
-5.9973812950845637
31
0
0
LINE
5
254
100
AcDbEntity
8
0
100
AcDbLine
10
-24.668299280731041
20
-5.9973812950845584
30
0
11
-24.976393717678221
21
-6.0807055464307744
31
0
0
LINE
5
255
100
AcDbEntity
8
0
100
AcDbLine
10
-24.976393717678221
20
-6.0807055464307691
30
0
11
-25.178296549568657
21
-6.0806831092750988
31
0
0
LINE
5
256
100
AcDbEntity
8
0
100
AcDbLine
10
-25.178296549568657
20
-6.0806831092750979
30
0
11
-25.486119202911816
21
-5.9972929894835847
31
0
0
LINE
5
257
100
AcDbEntity
8
0
100
AcDbLine
10
-25.486119202911816
20
-5.9972929894835936
30
0
11
-25.822640957606517
21
-5.7706114955299004
31
0
0
LINE
5
258
100
AcDbEntity
8
0
100
AcDbLine
10
-25.822640957606517
20
-5.7706114955299004
30
0
11
-26.049190418921938
21
-5.4341243736716702
31
0
0
LINE
5
259
100
AcDbEntity
8
0
100
AcDbLine
10
-26.049190418921945
20
-5.4341243736716649
30
0
11
-26.131045364942519
21
-5.1262997962218311
31
0
0
LINE
5
260
100
AcDbEntity
8
0
100
AcDbLine
10
-26.131045364942516
20
-5.1262997962218382
30
0
11
-26.131022905249345
21
-4.9241941583934183
31
0
0
LINE
5
261
100
AcDbEntity
8
0
100
AcDbLine
10
-26.131022905249345
20
-4.9241941583934157
30
0
11
-26.049096976777161
21
-4.6161345080622382
31
0
0
LINE
5
262
100
AcDbEntity
8
0
100
AcDbLine
10
-26.049096976777161
20
-4.6161345080622418
30
0
11
-25.822475275040709
21
-4.279701518363308
31
0
0
LINE
5
263
100
AcDbEntity
8
0
100
AcDbLine
10
-25.822475275040702
20
-4.2797015183633036
30
0
11
-25.485988153182511
21
-4.053152057047904
31
0
0
LINE
5
264
100
AcDbEntity
8
0
100
AcDbLine
10
-25.485988153182518
20
-4.0531520570478996
30
0
11
-25.178163575732668
21
-3.971297111027337
31
0
0
LINE
5
265
100
AcDbEntity
8
0
100
AcDbLine
10
-25.178163575732668
20
-3.9712971110273454
30
0
11
-24.976057937904272
21
-3.9713195707205324
31
0
0
LINE
5
266
100
AcDbEntity
8
0
100
AcDbLine
10
-24.976057937904272
20
-3.9713195707205262
30
0
11
-24.667998287573049
21
-4.0532454991926556
31
0
0
LINE
5
267
100
AcDbEntity
8
0
100
AcDbLine
10
-24.667998287573045
20
-4.0532454991926592
30
0
11
-24.331565297874125
21
-4.2798672009291288
31
0
0
LINE
5
268
100
AcDbEntity
8
0
100
AcDbLine
10
-24.331565297874125
20
-4.2798672009291305
30
0
11
-24.104970701080489
21
-4.6164213611597837
31
0
0
LINE
5
269
100
AcDbEntity
8
0
100
AcDbLine
10
-24.104970701080497
20
-4.6164213611597749
30
0
11
-24.021890927661438
21
-4.924513028088576
31
0
0
LINE
5
270
100
AcDbEntity
8
0
100
AcDbLine
10
-24.021890927661435
20
-4.9245130280885796
30
0
11
-24.021913368570537
21
-5.1264496356763276
31
0
0
ARC
5
271
100
AcDbEntity
8
0
100
AcDbCircle
10
-25.068414649776322
20
-18.386454334456587
30
0
40
1.9549999999999923
100
AcDbArc
50
299.44058362991325
51
359.99363280691102
0
LINE
5
272
100
AcDbEntity
8
0
100
AcDbLine
10
-24.107491628862647
20
-20.088997123310392
30
0
11
-39.253333630291792
21
-28.637380368404941
31
0
0
ARC
5
273
100
AcDbEntity
8
0
100
AcDbCircle
10
-41.758634625763669
20
-31.813146720340761
30
0
40
4.0450000000000079
100
AcDbArc
50
51.730770774103604
51
137.15759669902192
0
LINE
5
274
100
AcDbEntity
8
0
100
AcDbLine
10
-44.724537131201423
20
-29.062610894680937
30
0
11
-52.713153512498351
21
-15.644832286200556
31
0
0
LINE
5
275
100
AcDbEntity
8
0
100
AcDbLine
10
-52.713153512498351
20
-15.644832286200554
30
0
11
-54.239265220358071
21
-13.009298674345182
31
0
0
LINE
5
276
100
AcDbEntity
8
0
100
AcDbLine
10
-54.239265220358064
20
-13.009298674345189
30
0
11
-62.647236061591791
21
-18.015198350860487
31
0
0
LINE
5
277
100
AcDbEntity
8
0
100
AcDbLine
10
-62.647236061591791
20
-18.015198350860491
30
0
11
-71.01600205953099
21
-23.164892095952716
31
0
0
ARC
5
278
100
AcDbEntity
8
0
100
AcDbCircle
10
-69.944270539962645
20
-24.906562716352489
30
0
40
2.0450000000000026
100
AcDbArc
50
121.60593252142758
51
209.4405836295623
0
LINE
5
279
100
AcDbEntity
8
0
100
AcDbLine
10
-71.725191257721249
20
-25.911722602668171
30
0
11
-52.251813743415767
21
-60.41423502094603
31
0
0
ARC
5
280
100
AcDbEntity
8
0
100
AcDbCircle
10
-50.470893025657148
20
-59.409075134630356
30
0
40
2.0450000000000124
100
AcDbArc
50
209.44058362956201
51
299.73813801278908
0
LINE
5
281
100
AcDbEntity
8
0
100
AcDbLine
10
-49.45649787353193
20
-61.184751759284993
30
0
11
-39.905314791930508
21
-55.728423911909459
31
0
0
SPLINE
5
282
100
AcDbEntity
8
0
100
AcDbSpline
70
1064
71
3
72
17
73
13
74
0
42
0.000000001
43
0.0000000001
44
0.0000000001
40
0
40
0
40
0
40
0
40
2.5635705087856442
40
2.5635705087856442
40
2.5635705087856442
40
4.4595800472579974
40
4.4595800472579974
40
4.4595800472579974
40
5.7078079922037528
40
5.7078079922037528
40
5.7078079922037528
40
8.9517257510304677
40
8.9517257510304677
40
8.9517257510304677
40
8.9517257510304677
10
-39.905314791930508
20
-55.728423911909459
30
0
10
-32.485546349542204
20
-51.489714547071074
30
0
10
-29.977708695065473
20
-50.08447671126266
30
0
10
-28.573941505819668
20
-49.407951308944163
30
0
10
-27.535698766053528
20
-48.907585156632322
30
0
10
-26.845631334812914
20
-48.68072144094738
30
0
10
-25.895126985362495
20
-48.527010991669428
30
0
10
-25.269443785465317
20
-48.425828871022148
30
0
10
-24.494677922672658
20
-48.35254181759565
30
0
10
-23.597623943748189
20
-48.286018744515104
30
0
10
-21.26651605769398
20
-48.113150150310162
30
0
10
-16.502205862385757
20
-47.879999073097096
30
0
10
-8.5797701132392508
20
-47.504492433881609
30
0
0
LINE
5
283
100
AcDbEntity
8
0
100
AcDbLine
10
-8.5797701132392525
20
-47.504492433881609
30
0
11
4.0006680316654268
21
-46.908206367672712
31
0
0
ARC
5
284
100
AcDbEntity
8
0
100
AcDbCircle
10
3.9038480670166775
20
-44.865499610831336
30
0
40
2.0450000000000048
100
AcDbArc
50
272.71366741736534
51
359.99363280691102
0
LINE
5
285
100
AcDbEntity
8
0
100
AcDbLine
10
5.9488480543892734
20
-44.865726868580076
30
0
11
5.9502660821088345
21
-32.105472555570387
31
0
0
ARC
5
286
100
AcDbEntity
8
0
100
AcDbCircle
10
7.9052660700371558
20
-32.105689811755632
30
0
40
1.9549999999999956
100
AcDbArc
50
89.99363279473711
51
179.99363280691099
0
LINE
5
287
100
AcDbEntity
8
0
100
AcDbLine
10
7.9054833266373681
20
-30.150689823827356
30
0
11
70.626534696791211
21
-30.157659932505794
31
0
0
ARC
5
288
100
AcDbEntity
8
0
100
AcDbCircle
10
70.626761954974057
20
-28.112659945133235
30
0
40
2.045000000000015
100
AcDbArc
50
269.99363279473698
51
359.99364307083096
0
LINE
5
289
100
AcDbEntity
8
0
100
AcDbLine
10
72.67176194238732
20
-28.112886836543073
30
0
11
72.680139057019801
21
47.391070451375903
31
0
0
SPLINE
5
290
100
AcDbEntity
8
0
100
AcDbSpline
70
1064
71
3
72
17
73
13
74
0
42
0.000000001
43
0.0000000001
44
0.0000000001
40
0
40
0
40
0
40
0
40
0.078128894677386707
40
0.078128894677386707
40
0.078128894677386707
40
0.15625778935477377
40
0.15625778935477377
40
0.15625778935477377
40
0.20768829164540342
40
0.20768829164540342
40
0.20768829164540342
40
0.25911879393603382
40
0.25911879393603382
40
0.25911879393603382
40
0.25911879393603382
10
71.197279043905056
20
49.357517994008717
30
0
10
71.453310120858205
20
49.28431903593215
30
0
10
71.692596016952862
20
49.161811337177859
30
0
10
71.90166804661385
20
48.996890488760407
30
0
10
72.110740076274823
20
48.831969640342969
30
0
10
72.285600554388878
20
48.627789108661766
30
0
10
72.416407108974809
20
48.395841603595116
30
0
10
72.502514135485811
20
48.24315575363017
30
0
10
72.568633141449567
20
48.08003028300427
30
0
10
72.613136294143487
20
47.910481298358604
30
0
10
72.657639446837379
20
47.740932313712932
30
0
10
72.680158505585084
20
47.566362745604202
30
0
10
72.680139057019815
20
47.391070451375896
30
0
0
SPLINE
5
291
100
AcDbEntity
8
0
100
AcDbSpline
70
1064
71
3
72
14
73
10
74
0
42
0.000000001
43
0.0000000001
44
0.0000000001
40
0.15087027845355128
40
0.15087027845355128
40
0.15087027845355128
40
0.15087027845355128
40
3.7444697201676385
40
3.7444697201676385
40
3.7444697201676385
40
6.8006672844648621
40
6.8006672844648621
40
6.8006672844648621
40
6.8058388418777938
40
6.8058388418777938
40
6.8058388418777938
40
6.8058388418777938
10
71.19727904390507
20
49.357517994008695
30
0
10
59.677960273093873
20
52.650876526141104
30
0
10
48.117887928361071
20
55.701716206316398
30
0
10
38.585775519392691
20
57.665468066533549
30
0
10
30.479122255218325
20
59.335554899823563
30
0
10
23.218428649758156
20
60.343479605210149
30
0
10
13.64016875118795
20
61.117031682093625
30
0
10
13.62396307100823
20
61.118340472802267
30
0
10
13.607757390828512
20
61.119649263510929
30
0
10
13.591551710648794
20
61.120958054219614
30
0
0
LINE
5
292
100
AcDbEntity
8
0
100
AcDbLine
10
13.59155171064879
20
61.120958054219578
30
0
11
13.586878894152804
21
19.072182981685462
31
0
0
ARC
5
293
100
AcDbEntity
8
0
100
AcDbCircle
10
11.631878906224493
20
19.072400237870688
30
0
40
1.9549999999999914
100
AcDbArc
50
269.99363280689852
51
359.99363280691102
0
LINE
5
294
100
AcDbEntity
8
0
100
AcDbLine
10
11.631661650039241
20
17.117400249942378
30
0
11
-10.18233088916887
21
17.11982440586738
31
0
0
ARC
5
295
100
AcDbEntity
8
0
100
AcDbCircle
10
-10.182558146917621
20
15.074824418494801
30
0
40
2.0449999999999955
100
AcDbArc
50
89.993632806898844
51
141.31144535341048
0
ARC
5
296
100
AcDbEntity
8
0
100
AcDbCircle
10
-13.304779305627424
20
17.575171401636396
30
0
40
1.9550000000000627
100
AcDbArc
50
269.99363280689954
51
321.31144535340866
0
LINE
5
297
100
AcDbEntity
8
0
100
AcDbLine
10
-13.304996561812636
20
15.620171413708013
30
0
11
-24.845894668373916
21
15.621453936220824
31
0
0
ARC
5
298
100
AcDbEntity
8
0
100
AcDbCircle
10
-24.846121926122695
20
13.576453948848224
30
0
40
2.0450000000000133
100
AcDbArc
50
89.993632806898148
51
151.71481185452609
0
ARC
5
299
100
AcDbEntity
8
0
100
AcDbCircle
10
-28.368521459316476
20
15.471896253049566
30
0
40
1.9549999999999914
100
AcDbArc
50
269.99363280689857
51
331.71481185452672
0
LINE
5
300
100
AcDbEntity
8
0
100
AcDbLine
10
-28.368738715501721
20
13.516896265121252
30
0
11
-43.535493647137656
21
13.518581723606866
31
0
0
LINE
5
301
100
AcDbEntity
8
0
100
AcDbLine
10
-43.535493647137656
20
13.518581723606857
30
0
11
-43.534580164265918
21
29.958903073946892
31
0
0
LINE
5
302
100
AcDbEntity
8
0
100
AcDbLine
10
-43.534580164265918
20
29.958903073946914
30
0
11
-27.713717815075569
21
29.957144925492258
31
0
0
ARC
5
303
100
AcDbEntity
8
0
100
AcDbCircle
10
-25.050674054156225
20
33.001849004288218
30
0
40
4.045000000001024
100
AcDbArc
50
-131.17449442346947
51
34.60566348940398
0
LINE
5
304
100
AcDbEntity
8
0
100
AcDbLine
10
-21.721314503073334
20
35.299106059913782
30
0
11
-21.71993175692112
21
47.741875906879386
31
0
0
ARC
5
305
100
AcDbEntity
8
0
100
AcDbCircle
10
-19.764931768992813
20
47.741658650694141
30
0
40
1.9549999999999894
100
AcDbArc
50
89.993632806907456
51
179.99363280696826
0
LINE
5
306
100
AcDbEntity
8
0
100
AcDbLine
10
-19.764714512807871
20
49.696658638622459
30
0
11
-8.3630417544481084
21
49.695391588013365
31
0
0
ARC
5
307
100
AcDbEntity
8
0
100
AcDbCircle
10
-8.362814496699654
20
51.740391575385971
30
0
40
2.0449999999999977
100
AcDbArc
50
269.99363280690727
51
359.99363280696826
0
LINE
5
308
100
AcDbEntity
8
0
100
AcDbLine
10
-6.317814509327059
20
51.740164317637507
30
0
11
-6.3167175226204879
21
61.611501231114659
31
0
0
LINE
5
309
100
AcDbEntity
8
0
100
AcDbLine
10
-6.3167175226204879
20
61.611501231114659
30
0
11
-7.9083984202196316
21
61.538981559796056
31
0
0
LINE
5
310
100
AcDbEntity
8
0
100
AcDbLine
10
-7.9083984202196316
20
61.538981559796049
30
0
11
-7.9095834512466929
21
50.875369573747506
31
0
0
LINE
5
311
100
AcDbEntity
8
0
100
AcDbLine
10
-7.9095834512466929
20
50.875369573747491
30
0
11
-16.319583399316326
21
50.876304164293735
31
0
0
LINE
5
312
100
AcDbEntity
8
0
100
AcDbLine
10
-16.319583399316326
20
50.876304164293728
30
0
11
-16.318820873427814
21
57.73796428749268
31
0
0
LINE
5
313
100
AcDbEntity
8
0
100
AcDbLine
10
-16.318820873427814
20
57.737964287492687
30
0
11
-16.318478991370075
21
60.814404673960524
31
0
0
SPLINE
5
314
100
AcDbEntity
8
0
100
AcDbSpline
70
1064
71
3
72
17
73
13
74
0
42
0.000000001
43
0.0000000001
44
0.0000000001
40
-0.00511208624047251
40
-0.00511208624047251
40
-0.00511208624047251
40
-0.00511208624047251
40
0
40
0
40
0
40
1.6240709595040261
40
1.6240709595040261
40
1.6240709595040261
40
3.9486661449472553
40
3.9486661449472553
40
3.9486661449472553
40
3.9527552718513803
40
3.9527552718513803
40
3.9527552718513803
40
3.9527552718513803
10
-16.318478991370075
20
60.814404673960524
30
0
10
-16.335381880624141
20
60.812245106442163
30
0
10
-16.352284769878178
20
60.810085538923857
30
0
10
-16.369187659132209
20
60.807925971405517
30
0
10
-21.742021630974918
20
60.12147541537545
30
0
10
-26.86695616663371
20
58.931959607239442
30
0
10
-30.64220526645963
20
57.93509469900539
30
0
10
-36.045845436978048
20
56.508248649836872
30
0
10
-41.212481425360046
20
54.812191825560362
30
0
10
-46.594922463704918
20
52.675654129174411
30
0
10
-46.604387764056426
20
52.67189691736948
30
0
10
-46.613853064407927
20
52.668139705564563
30
0
10
-46.62331836475942
20
52.664382493759632
30
0
0
LINE
5
315
100
AcDbEntity
8
0
100
AcDbLine
10
-46.62331836475942
20
52.664382493759632
30
0
11
-46.626060317176325
21
3.3163539148087118
31
0
0
SPLINE
5
316
100
AcDbEntity
8
0
100
AcDbSpline
70
1064
71
3
72
14
73
10
74
0
42
0.000000001
43
0.0000000001
44
0.0000000001
40
0
40
0
40
0
40
0
40
0.40420334945926978
40
0.40420334945926978
40
0.40420334945926978
40
0.65262549003533032
40
0.65262549003533032
40
0.65262549003533032
40
0.65382553635905838
40
0.65382553635905838
40
0.65382553635905838
40
0.65382553635905838
10
-46.626060317176325
20
3.316353914808694
30
0
10
-46.626135185964671
20
1.9690549218030284
30
0
10
-46.628270377350027
20
0.32598203395482805
30
0
10
-46.63769518120862
20
-1.0737639696720169
30
0
10
-46.643487666281942
20
-1.9340479558540391
30
0
10
-46.653758661171082
20
-2.9769936181639434
30
0
10
-46.674439145310913
20
-3.8694903857562757
30
0
10
-46.674539098212342
20
-3.8738040005072971
30
0
10
-46.674639051113772
20
-3.8781176152583008
30
0
10
-46.674739004015215
20
-3.8824312300093222
30
0
0
LINE
5
317
100
AcDbEntity
8
0
100
AcDbLine
10
-46.674739004015215
20
-3.8824312300093133
30
0
11
-42.787407406832834
21
-10.411641507883758
31
0
0
LINE
5
318
100
AcDbEntity
8
0
100
AcDbLine
10
-42.787407406832827
20
-10.411641507883758
30
0
11
-40.54275662282069
21
-10.411891859759033
31
0
0
ARC
5
319
100
AcDbEntity
8
0
100
AcDbCircle
10
-38.836990544207978
20
-11.367081414273867
30
0
40
1.9550000000000092
100
AcDbArc
50
89.993632806898788
51
150.75218241890548
0
LINE
5
320
100
AcDbEntity
8
0
100
AcDbLine
10
-38.836773288022734
20
-9.4120814263455355
30
0
11
-34.300874931168615
21
-9.4125854938543583
31
0
0
ARC
5
321
100
AcDbEntity
8
0
100
AcDbCircle
10
-34.301092187353881
20
-11.367585481782703
30
0
40
1.9550000000000183
100
AcDbArc
50
29.235083597604991
51
89.993632806898177
0
LINE
5
322
100
AcDbEntity
8
0
100
AcDbLine
10
-32.595113860051079
20
-10.412775057262103
30
0
11
-23.112528651975467
21
-10.41382935304566
31
0
0
LINE
5
323
100
AcDbEntity
8
0
100
AcDbLine
10
-23.112528651975467
20
-10.413829353045667
30
0
11
-23.113414661847997
21
-18.386671590641843
31
0
0
ENDSEC
0
SECTION
2
OBJECTS
0
DICTIONARY
5
C
100
AcDbDictionary
3
ACAD_GROUP
350
D
3
ACAD_MLINESTYLE
350
17
0
DICTIONARY
5
D
100
AcDbDictionary
0
DICTIONARY
5
1A
330
C
100
AcDbDictionary
0
DICTIONARY
5
17
100
AcDbDictionary
0
ENDSEC
0
EOF
